<?xml version="1.0" encoding="utf-8"?>
<!-- Generator: Adobe Illustrator 21.0.0, SVG Export Plug-In . SVG Version: 6.00 Build 0)  -->
<svg version="1.1" id="Layer_1" xmlns="http://www.w3.org/2000/svg" xmlns:xlink="http://www.w3.org/1999/xlink" x="0px" y="0px"
	 viewBox="0 0 191.8 74.5" style="enable-background:new 0 0 191.8 74.5;" xml:space="preserve">
<style type="text/css">
	.st0{fill:#231F20;}
</style>
<path class="st0" d="M34.1,56.3c0-8.3-3-14.4-12.6-22.8C14,26.9,11.7,23,11.7,17.7c0-5.2,2.1-7.2,5.7-7.2s5.7,2,5.7,7.2v3H34v-2.3
	C34,6.8,28.3,0.1,17.2,0.1S0.3,6.7,0.3,18.3c0,8.3,3,14.4,12.6,22.8c7.5,6.6,9.8,10.5,9.8,15.8c0,5.2-2.3,7.1-5.9,7.1
	s-5.9-1.9-5.9-7.1v-5.2H0v4.5c0,11.6,5.8,18.3,17.1,18.3S34.1,67.9,34.1,56.3z"/>
<path class="st0" d="M67,0.8H50.1v72.8h11.4V46.3H67c11.4,0,17.1-6.3,17.1-18v-9.5C84,7.2,78.4,0.8,67,0.8z M72.6,29
	c0,5.2-2,6.9-5.6,6.9h-5.4V11.2H67c3.6,0,5.6,1.7,5.6,6.9V29z"/>
<path class="st0" d="M118,0c-11.2,0-17.4,6.7-17.4,18.3v37.9c0,11.6,6.1,18.3,17.4,18.3c11.2,0,17.4-6.7,17.4-18.3V18.3
	C135.4,6.7,129.3,0,118,0z M124,57c0,5.2-2.3,7.2-5.9,7.2s-5.9-2-5.9-7.2V17.6c0-5.2,2.3-7.2,5.9-7.2s5.9,2,5.9,7.2V57z"/>
<polygon class="st0" points="180.9,0.8 172.2,34 172,34 163.4,0.8 151.4,0.8 165.9,49.5 165.9,73.6 177.3,73.6 177.3,49.5 
	191.8,0.8 "/>
</svg>
