<?xml version="1.0" encoding="utf-8"?>
<!-- Generator: Adobe Illustrator 21.0.0, SVG Export Plug-In . SVG Version: 6.00 Build 0)  -->
<svg version="1.1" id="Layer_1" xmlns="http://www.w3.org/2000/svg" xmlns:xlink="http://www.w3.org/1999/xlink" x="0px" y="0px"
	 viewBox="0 0 191.8 106.2" style="enable-background:new 0 0 191.8 106.2;" xml:space="preserve">
<style type="text/css">
	.st0{fill:#231F20;}
</style>
<path class="st0" d="M34.1,56.2c0-8.3-3-14.4-12.6-22.8c-7.5-6.6-9.8-10.5-9.8-15.8c0-5.2,2.1-7.2,5.7-7.2s5.7,2,5.7,7.2v3H34v-2.3
	C34,6.7,28.3,0,17.2,0S0.3,6.7,0.3,18.3c0,8.3,3,14.4,12.6,22.8c7.5,6.6,9.8,10.5,9.8,15.8c0,5.2-2.3,7.1-5.9,7.1s-5.9-1.9-5.9-7.1
	v-5.2H0v4.5c0,11.6,5.8,18.3,17.1,18.3S34.1,67.8,34.1,56.2z"/>
<path class="st0" d="M67,0.8H50.1v72.8h11.4V46.3H67c11.4,0,17.1-6.3,17.1-18v-9.5C84,7.2,78.4,0.8,67,0.8z M72.6,29
	c0,5.2-2,6.9-5.6,6.9h-5.4V11.2H67c3.6,0,5.6,1.7,5.6,6.9V29z"/>
<path class="st0" d="M118,0c-11.2,0-17.4,6.7-17.4,18.3v37.9c0,11.6,6.1,18.3,17.4,18.3c11.2,0,17.4-6.7,17.4-18.3V18.3
	C135.4,6.7,129.3,0,118,0z M124,56.9c0,5.2-2.3,7.2-5.9,7.2s-5.9-2-5.9-7.2V17.6c0-5.2,2.3-7.2,5.9-7.2s5.9,2,5.9,7.2V56.9z"/>
<polygon class="st0" points="180.9,0.8 172.2,34 172,34 163.4,0.8 151.4,0.8 165.9,49.5 165.9,73.6 177.3,73.6 177.3,49.5 
	191.8,0.8 "/>
<polygon class="st0" points="-0.2,106.2 1.9,106.2 1.9,98.5 8,98.5 8,97.1 1.9,97.1 1.9,90.8 8,90.8 8,89.4 -0.2,89.4 "/>
<path class="st0" d="M36.4,90.1c-0.6-0.4-1.3-0.6-2.2-0.6h-2.1c-0.8,0-1.5,0.2-2.1,0.6s-0.9,0.9-0.9,1.5v12.6c0,0.6,0.3,1,0.9,1.5
	c0.6,0.4,1.3,0.6,2.1,0.6h2.1c0.8,0,1.6-0.2,2.2-0.6c0.6-0.4,0.9-0.9,0.9-1.5V91.6C37.3,91,37,90.5,36.4,90.1z M35.3,103.4
	c0,0.4-0.2,0.7-0.6,1c-0.4,0.3-0.9,0.4-1.4,0.4s-1-0.1-1.5-0.4c-0.4-0.3-0.6-0.6-0.6-1V92.2c0-0.4,0.2-0.7,0.6-1
	c0.4-0.3,0.9-0.4,1.5-0.4s1,0.1,1.4,0.4s0.6,0.6,0.6,1V103.4z"/>
<path class="st0" d="M65.2,103.4c0,0.4-0.2,0.7-0.6,1s-0.9,0.4-1.4,0.4s-1-0.1-1.5-0.4c-0.4-0.3-0.6-0.6-0.6-1v-14h-2v14.7
	c0,0.6,0.3,1,0.9,1.5c0.6,0.4,1.3,0.6,2.1,0.6h2.1c0.8,0,1.6-0.2,2.2-0.6s0.9-0.9,0.9-1.5V89.4h-2L65.2,103.4L65.2,103.4z"/>
<polygon class="st0" points="95,101.9 92.1,89.4 88.9,89.4 88.9,106.2 90.9,106.2 90.9,93.7 93.9,106.2 97.1,106.2 97.1,89.4 
	95,89.4 "/>
<path class="st0" d="M126.1,90.1c-0.6-0.4-1.3-0.6-2.2-0.6h-5.1v16.8h5.1c0.8,0,1.6-0.2,2.2-0.6s0.9-0.9,0.9-1.5V91.6
	C127,91,126.7,90.5,126.1,90.1z M125,103.4c0,0.4-0.2,0.7-0.6,1s-0.9,0.4-1.4,0.4h-2.1v-14h2.1c0.6,0,1,0.1,1.4,0.4s0.6,0.6,0.6,1
	V103.4z"/>
<path class="st0" d="M156,90.1c-0.6-0.4-1.3-0.6-2.2-0.6h-5.1v16.8h2v-7.7h2.1c0.6,0,1,0.1,1.4,0.4s0.6,0.6,0.6,1v6.3h2v-7.4
	c0-0.3-0.1-0.5-0.4-0.7l-0.2-0.1c-0.3-0.1-0.5-0.2-0.9-0.2c0.3,0,0.6-0.1,0.9-0.2c0,0,0-0.1,0.1-0.1c0,0,0.1,0,0.1-0.1
	c0.3-0.2,0.4-0.4,0.4-0.7v-5.2C156.9,91,156.6,90.5,156,90.1z M154.9,95.7c0,0.4-0.2,0.7-0.6,1c-0.4,0.3-0.9,0.4-1.4,0.4h-2.1v-6.3
	h2.1c0.6,0,1,0.1,1.4,0.4s0.6,0.6,0.6,1V95.7z"/>
<polygon class="st0" points="182.4,94.8 180.4,89.4 178.3,89.4 181.3,97.8 181.3,106.2 183.4,106.2 183.4,97.8 186.4,89.4 
	184.3,89.4 "/>
</svg>
